<svg width="20" height="20" viewBox="0 0 20 20" fill="none" xmlns="http://www.w3.org/2000/svg">
<path fill-rule="evenodd" clip-rule="evenodd" d="M1.91087 1.91076C2.2363 1.58533 2.76394 1.58533 3.08938 1.91076L5.62296 4.44434C6.92426 3.73585 8.41633 3.33335 10.0005 3.33335C14.1063 3.33335 17.5795 6.03207 18.7474 9.75035C18.7984 9.9129 18.7984 10.0872 18.7474 10.2498C18.2034 11.9815 17.1605 13.4905 15.7878 14.6092L18.0894 16.9108C18.4148 17.2362 18.4148 17.7638 18.0894 18.0893C17.7639 18.4147 17.2363 18.4147 16.9109 18.0893L1.91087 3.08928C1.58543 2.76384 1.58543 2.2362 1.91087 1.91076ZM6.86382 5.68521L8.30694 7.12833C8.80314 6.83526 9.3823 6.66669 10.0001 6.66669C11.8411 6.66669 13.3335 8.15907 13.3335 10C13.3335 10.6178 13.1649 11.197 12.8718 11.6932L14.6018 13.4232C15.7243 12.5498 16.5915 11.365 17.074 10C16.0442 7.08623 13.2649 5.00002 10.0005 5.00002C8.87969 5.00002 7.81764 5.24538 6.86382 5.68521ZM11.6105 10.4319C11.6472 10.2942 11.6668 10.1495 11.6668 10C11.6668 9.07955 10.9206 8.33335 10.0001 8.33335C9.85067 8.33335 9.70594 8.35291 9.56829 8.38967L11.6105 10.4319ZM3.85419 6.8115C4.22118 7.08923 4.29355 7.61189 4.01582 7.97888C3.55532 8.58738 3.18581 9.26781 2.92702 10C3.95678 12.9138 6.73605 15 10.0005 15C10.482 15 10.9522 14.9547 11.4073 14.8685C11.8594 14.7827 12.2955 15.0798 12.3813 15.5319C12.467 15.9841 12.17 16.4202 11.7178 16.5059C11.1609 16.6115 10.5867 16.6667 10.0005 16.6667C5.89473 16.6667 2.42145 13.968 1.25362 10.2497C1.20257 10.0871 1.20257 9.91284 1.25363 9.75028C1.57188 8.73699 2.06104 7.80004 2.68682 6.97313C2.96454 6.60614 3.4872 6.53377 3.85419 6.8115Z" fill="white" fill-opacity="0.6"/>
</svg>
