<svg width="15" height="15" viewBox="0 0 15 15" fill="none" xmlns="http://www.w3.org/2000/svg">
<path d="M13.125 3.73755C11.0438 3.5313 8.95 3.42505 6.8625 3.42505C5.625 3.42505 4.3875 3.48755 3.15 3.61255L1.875 3.73755" stroke="white" stroke-width="1.5" stroke-linecap="round" stroke-linejoin="round"/>
<path d="M5.3125 3.10625L5.45 2.2875C5.55 1.69375 5.625 1.25 6.68125 1.25H8.31875C9.375 1.25 9.45625 1.71875 9.55 2.29375L9.6875 3.10625" stroke="white" stroke-width="1.5" stroke-linecap="round" stroke-linejoin="round"/>
<path d="M11.7812 5.71252L11.375 12.0063C11.3062 12.9875 11.25 13.75 9.50625 13.75H5.49375C3.75 13.75 3.69375 12.9875 3.625 12.0063L3.21875 5.71252" stroke="white" stroke-width="1.5" stroke-linecap="round" stroke-linejoin="round"/>
<path d="M6.45624 10.3125H8.53749" stroke="white" stroke-width="1.5" stroke-linecap="round" stroke-linejoin="round"/>
<path d="M5.9375 7.8125H9.0625" stroke="white" stroke-width="1.5" stroke-linecap="round" stroke-linejoin="round"/>
</svg>
