<svg width="204" height="88" viewBox="0 0 204 88" fill="none" xmlns="http://www.w3.org/2000/svg">
<path d="M193.577 66.2274C193.577 68.597 193.057 69.6725 192.366 70.1372C191.65 70.6183 190.546 70.597 188.977 70.214C188.042 69.9859 187.034 69.6565 185.941 69.2994C185.209 69.0604 184.439 68.8089 183.628 68.5669C181.643 67.9749 179.481 67.4669 177.293 67.4669C175.103 67.4669 173.026 67.9757 171.166 68.5698C170.352 68.8297 169.573 69.1083 168.845 69.3687C168.741 69.4058 168.639 69.4424 168.537 69.4786C167.716 69.7713 166.969 70.0317 166.292 70.2176C164.894 70.6015 163.996 70.6055 163.426 70.1588C162.846 69.7035 162.403 68.6212 162.403 66.2274C162.403 61.5245 164.122 55.5212 166.893 50.6971C168.276 48.2882 169.909 46.1968 171.696 44.713C173.482 43.2295 175.397 42.3742 177.361 42.3742C179.329 42.3742 181.326 43.2325 183.235 44.7225C185.143 46.2111 186.932 48.3072 188.471 50.7172C191.555 55.5466 193.577 61.5426 193.577 66.2274Z" stroke="#1D1D1D"/>
<path d="M167.344 38.4793C167.878 40.7447 167.9 42.8778 167.333 44.5659C166.775 46.2252 165.642 47.4797 163.77 48.0492C161.898 48.6188 160.365 48.1753 159.151 47.055C157.916 45.9153 156.996 44.0554 156.461 41.79C155.926 39.5246 155.904 37.3915 156.472 35.7034C157.03 34.0441 158.162 32.7897 160.034 32.2201C161.907 31.6505 163.44 32.094 164.654 33.2143C165.889 34.354 166.809 36.2139 167.344 38.4793Z" stroke="#1D1D1D"/>
<path d="M200.763 45.201C198.975 49.5544 195.805 52.1731 191.971 50.143C188.136 48.113 187.866 43.6732 189.654 39.3198C191.442 34.9663 194.611 32.3476 198.446 34.3777C202.28 36.4077 202.551 40.8475 200.763 45.201Z" fill="#1D1D1D"/>
<path d="M178.256 27.9581C178.256 30.3645 178.162 32.9027 177.567 34.8304C177.271 35.7898 176.862 36.5561 176.317 37.0789C175.784 37.5895 175.094 37.8951 174.16 37.8951C172.227 37.8951 170.849 37.0192 169.931 35.5789C168.997 34.1137 168.531 32.0446 168.531 29.6976C168.531 27.3506 168.997 25.2815 169.931 23.8162C170.849 22.3759 172.227 21.5 174.16 21.5C175.181 21.5 175.92 21.6311 176.461 21.8693C176.988 22.1011 177.347 22.4428 177.605 22.9168C177.871 23.4053 178.039 24.0523 178.136 24.9012C178.233 25.7481 178.256 26.7589 178.256 27.9581Z" fill="#1D1D1D" stroke="#1D1D1D"/>
<path d="M180.788 31.4371C180.788 29.0306 180.882 26.4924 181.477 24.5647C181.773 23.6053 182.182 22.8391 182.727 22.3162C183.26 21.8057 183.95 21.5 184.884 21.5C186.817 21.5 188.195 22.3759 189.113 23.8162C190.047 25.2815 190.513 27.3506 190.513 29.6976C190.513 32.0446 190.047 34.1137 189.113 35.5789C188.195 37.0192 186.817 37.8951 184.884 37.8951C183.863 37.8951 183.124 37.7641 182.583 37.5258C182.056 37.294 181.697 36.9523 181.439 36.4783C181.173 35.9898 181.005 35.3428 180.908 34.4939C180.811 33.647 180.788 32.6363 180.788 31.4371Z" stroke="#1D1D1D"/>
<path d="M6.16 71.42C5.6 71.42 5.32 70.6033 5.32 68.97C5.32 66.6367 5.29667 64.56 5.25 62.74L5.11 56.44V50.77C5.06333 49.09 5.04 47.2 5.04 45.1C5.04 38.8467 4.92333 33.06 4.69 27.74L4.62 25.22C4.48 22.4667 4.41 20.2267 4.41 18.5L4.62 18.22C4.66667 18.1267 4.76 18.01 4.9 17.87C4.94667 17.73 5.06333 17.6367 5.25 17.59C5.34333 17.5433 5.50667 17.52 5.74 17.52C7.37333 17.52 8.84333 17.8933 10.15 18.64C11.5033 19.3867 12.6 20.4133 13.44 21.72C15.0733 24.2867 15.89 27.2033 15.89 30.47C15.89 32.57 15.54 34.7167 14.84 36.91C14.1867 39.1033 13.1833 41.0867 11.83 42.86C10.43 44.7733 8.86667 45.8933 7.14 46.22L7.28 53.99L7.42 57.77C7.60667 62.25 7.7 66.0767 7.7 69.25C7.7 69.9967 7.58333 70.5567 7.35 70.93C7.16333 71.2567 6.76667 71.42 6.16 71.42ZM7.14 43.63C7.56 43.5833 7.98 43.3967 8.4 43.07C8.49333 43.0233 8.65667 42.8367 8.89 42.51C8.89 42.51 9.05333 42.3467 9.38 42.02C12.4133 38.9867 13.93 35.1833 13.93 30.61C13.93 27.9967 13.4167 25.57 12.39 23.33C11.83 22.1633 11.0133 21.2533 9.94 20.6C8.86667 19.9 7.60667 19.55 6.16 19.55C6.16 22.21 6.3 26.2 6.58 31.52C6.86 36.84 7 40.83 7 43.49L7.14 43.63ZM25.7157 71.91C24.8757 71.91 24.409 71.42 24.3157 70.44V69.53C24.3624 69.2967 24.3857 69.0167 24.3857 68.69L24.1057 68.41C24.479 67.43 24.6657 66.4733 24.6657 65.54C24.6657 64.4667 24.5957 62.9267 24.4557 60.92L24.3157 56.3C24.3157 53.9667 24.3857 50.4667 24.5257 45.8C24.7124 41.6467 24.8057 38.1233 24.8057 35.23L24.6657 31.03C24.5724 29.77 24.5257 28.37 24.5257 26.83C24.5257 26.13 24.689 25.64 25.0157 25.36C25.3424 25.0333 25.8557 24.87 26.5557 24.87C27.0224 24.87 27.3957 25.01 27.6757 25.29C27.769 25.3367 28.4457 25.43 29.7057 25.57C30.8724 25.71 31.8757 25.92 32.7157 26.2C33.6024 26.48 34.0457 26.83 34.0457 27.25C34.0457 27.7167 33.6024 28.1833 32.7157 28.65C30.0557 27.7633 28.1657 27.32 27.0457 27.32L26.6957 27.74C26.7424 28.16 26.7657 29.1633 26.7657 30.75C26.7657 32.7567 26.719 34.5533 26.6257 36.14C26.579 37.7733 26.5557 39.5933 26.5557 41.6C26.5557 42.9067 26.8824 43.56 27.5357 43.56L28.6557 43.49C29.029 43.4433 29.4257 43.42 29.8457 43.42C31.6657 43.42 32.5757 43.84 32.5757 44.68C32.5757 45.1933 32.459 45.6367 32.2257 46.01C31.9924 46.3367 31.6424 46.5 31.1757 46.5C30.4757 46.5 29.939 46.3133 29.5657 45.94L27.3257 45.59H26.9757L26.6257 45.94V46.15C26.719 46.9433 26.7657 48.7867 26.7657 51.68C26.7657 53.5 26.7424 55.1567 26.6957 56.65L26.6257 61.62C26.6257 63.44 26.6957 65.3067 26.8357 67.22C26.8824 68.2933 27.1157 69.0167 27.5357 69.39C27.9557 69.7167 28.7257 69.88 29.8457 69.88L31.1057 69.81C31.5257 69.7633 31.9924 69.74 32.5057 69.74C33.859 69.74 34.5357 70.0433 34.5357 70.65C34.5357 71.49 33.509 71.91 31.4557 71.91H25.7157ZM46.9159 70.02L46.8459 67.43C46.7992 66.6833 46.7759 65.8433 46.7759 64.91C46.7759 64.4433 46.7992 64.0467 46.8459 63.72L46.9159 62.46C46.9159 61.9933 46.8225 61.4333 46.6359 60.78C46.6359 57.6533 46.4025 51.8433 45.9359 43.35C45.4692 35.1367 45.2125 29.56 45.1659 26.62C42.2725 26.62 40.3359 26.55 39.3559 26.41C38.4225 26.1767 37.9559 25.8033 37.9559 25.29C38.1892 24.7767 38.6325 24.52 39.2859 24.52C40.6859 24.52 42.7159 24.6133 45.3759 24.8C47.8025 25.0333 49.8325 25.15 51.4659 25.15H52.9359L54.4059 25.08C55.2459 25.08 55.6659 25.3833 55.6659 25.99C55.6659 26.27 55.5025 26.5033 55.1759 26.69C54.8959 26.83 54.5459 26.9 54.1259 26.9C53.1925 26.9 52.2125 26.8533 51.1859 26.76L48.1759 26.62C47.9892 26.62 47.8959 26.69 47.8959 26.83C47.8492 26.97 47.8259 27.4133 47.8259 28.16C47.8259 32.6867 48.1059 39.5467 48.6659 48.74C49.1792 58.26 49.4359 65.0967 49.4359 69.25C49.4359 69.5767 49.2259 69.88 48.8059 70.16C48.4325 70.44 48.0592 70.58 47.6859 70.58L46.9159 70.02ZM83.9371 72.61C83.3304 72.61 82.9104 72.4467 82.6771 72.12C82.4904 71.84 82.3971 71.35 82.3971 70.65V64.28C82.3971 61.1067 82.3038 57.2567 82.1171 52.73C82.0704 51.89 82.0471 50.6767 82.0471 49.09C81.9071 45.7767 81.8371 43.1633 81.8371 41.25L81.9071 37.33C81.9538 36.1633 81.9771 34.8567 81.9771 33.41C81.9771 32.15 81.9538 31.03 81.9071 30.05C81.8604 29.35 81.8138 28.7667 81.7671 28.3C81.7671 27.8333 81.7438 27.46 81.6971 27.18L81.5571 27.67C81.0438 31.0767 80.2738 35.5567 79.2471 41.11C78.2204 46.6633 77.3804 51.12 76.7271 54.48C76.0738 57.4667 75.6538 59.59 75.4671 60.85C75.3738 61.4567 75.1638 61.9467 74.8371 62.32C74.5571 62.6933 74.2304 62.88 73.8571 62.88C73.4838 62.88 73.1571 62.6933 72.8771 62.32C72.5971 61.9467 72.4338 61.41 72.3871 60.71C72.0604 58.47 70.8704 52.2167 68.8171 41.95C66.7638 31.6833 65.6204 26.3633 65.3871 25.99C65.2471 30.19 65.1771 34.9033 65.1771 40.13C65.1771 44.2367 65.2004 47.9467 65.2471 51.26C65.2938 54.5733 65.3171 58.2833 65.3171 62.39C65.3171 63.09 65.3871 64.1867 65.5271 65.68L65.6671 69.04C65.6671 69.9267 65.5038 70.5333 65.1771 70.86C63.8238 70.86 63.1471 69.6467 63.1471 67.22V55.53L63.2171 48.46C63.2638 46.36 63.2871 43.98 63.2871 41.32C63.2871 38.24 63.3104 35.4867 63.3571 33.06L63.4971 24.73V18.57C63.4971 18.3367 63.5904 18.1267 63.7771 17.94C64.0104 17.7533 64.2438 17.66 64.4771 17.66C64.8504 17.66 65.1071 17.8467 65.2471 18.22C65.6671 19.62 66.7171 23.75 68.3971 30.61C70.0771 37.47 71.3371 42.7667 72.1771 46.5C72.5971 48.6933 73.2738 52.5667 74.2071 58.12L74.6971 55.39C74.8371 54.55 75.0471 53.3833 75.3271 51.89C75.8871 48.25 76.2371 46.1967 76.3771 45.73L79.5971 28.58L80.2271 24.94L80.9971 21.02L81.3471 18.92C81.3938 18.4533 81.5338 18.1033 81.7671 17.87C82.0004 17.59 82.2571 17.45 82.5371 17.45C82.7704 17.45 82.9804 17.5667 83.1671 17.8C83.3538 18.0333 83.4471 18.36 83.4471 18.78V25.71C83.4471 29.21 83.6571 34.5067 84.0771 41.6C84.4038 48.1333 84.5671 53.3833 84.5671 57.35C84.5671 58.61 84.6371 60.5467 84.7771 63.16C84.8704 66.52 84.9171 68.8533 84.9171 70.16C84.9171 71.1867 84.8471 71.8633 84.7071 72.19C84.5204 72.47 84.2638 72.61 83.9371 72.61ZM108.928 71.63C108.228 71.63 107.784 71.5367 107.598 71.35C107.411 71.21 107.271 70.79 107.178 70.09C106.758 66.6833 106.501 64.56 106.408 63.72L106.058 60.92C105.031 60.6867 103.864 60.57 102.558 60.57L100.038 60.43C98.9177 60.29 98.101 60.22 97.5877 60.22C97.3077 60.22 97.1443 60.3367 97.0977 60.57C97.0977 60.71 97.0743 60.78 97.0277 60.78L96.8877 62.18C96.841 63.02 96.5843 64.7 96.1177 67.22C95.8843 68.48 95.6043 69.46 95.2777 70.16C94.9043 70.9533 94.5543 71.35 94.2277 71.35C93.9477 71.35 93.6443 71.2333 93.3177 71C92.991 70.72 92.8277 70.44 92.8277 70.16L92.8977 69.95L92.9677 69.74C93.8077 66.4267 94.5077 63.1367 95.0677 59.87L95.9077 55.53L96.7477 50.21C96.7477 50.21 97.0043 48.67 97.5177 45.59C97.751 44.33 98.171 42.3 98.7777 39.5C99.431 36.3267 99.8277 34.1567 99.9677 32.99C100.014 32.85 100.108 31.9867 100.248 30.4C100.434 28.6267 100.598 27.32 100.738 26.48C100.878 25.2667 101.018 24.5667 101.158 24.38H101.648C101.788 24.4267 101.951 24.45 102.138 24.45C102.698 24.45 103.118 24.31 103.398 24.03C103.724 24.03 104.004 24.1467 104.238 24.38C104.518 24.5667 104.658 24.8 104.658 25.08C104.658 27.32 104.821 29.8867 105.148 32.78C105.334 34.2733 105.474 35.51 105.568 36.49C106.081 42.51 107.388 53.8033 109.488 70.37V70.58C109.488 71.0467 109.301 71.3967 108.928 71.63ZM105.708 59.03C105.241 52.31 104.354 42.3933 103.048 29.28L99.2677 47.97C98.1943 53.3367 97.6577 56.72 97.6577 58.12C97.6577 58.3533 98.5443 58.5633 100.318 58.75C102.091 58.9367 103.654 59.03 105.008 59.03H105.708ZM118.061 71.84C117.548 68.9 117.291 65.54 117.291 61.76C117.291 60.2667 117.361 58.0967 117.501 55.25L117.641 48.74C117.314 48.0867 117.151 47.55 117.151 47.13C117.618 46.3833 117.851 44.2367 117.851 40.69C117.851 32.1967 117.734 27.67 117.501 27.11C117.921 25.9433 118.248 25.36 118.481 25.36H121.561C122.074 25.36 122.798 25.6167 123.731 26.13C124.711 26.5967 125.528 27.11 126.181 27.67C127.348 28.7433 127.931 31.4967 127.931 35.93C127.931 38.31 127.861 40.13 127.721 41.39C127.628 42.2767 127.464 42.9767 127.231 43.49C127.044 44.0033 126.741 44.5867 126.321 45.24C125.621 46.3133 124.431 47.2467 122.751 48.04C122.051 48.4133 121.071 48.7867 119.811 49.16V57.49C119.811 58.6567 119.928 60.9433 120.161 64.35L120.301 66.59L120.441 71.14C120.441 71.98 119.998 72.4 119.111 72.4L118.061 71.84ZM120.301 46.78C121.654 46.78 122.798 46.15 123.731 44.89C124.058 44.4233 124.361 43.7933 124.641 43C124.921 42.2067 125.108 41.4367 125.201 40.69C125.481 39.3367 125.621 37.7733 125.621 36V34.11C125.621 33.4567 125.598 32.8267 125.551 32.22C125.504 31.6133 125.411 31.03 125.271 30.47C125.084 29.8633 124.828 29.3733 124.501 29C124.221 28.58 123.824 28.23 123.311 27.95C122.751 27.67 122.074 27.53 121.281 27.53C120.721 27.53 120.324 27.67 120.091 27.95C119.858 28.23 119.741 28.72 119.741 29.42C119.741 30.54 119.811 32.22 119.951 34.46L120.091 39.5C120.091 40.7133 120.044 41.81 119.951 42.79L119.811 46.08L120.301 46.78ZM149.26 71.63C148.56 71.63 148.116 71.5367 147.93 71.35C147.743 71.21 147.603 70.79 147.51 70.09C147.09 66.6833 146.833 64.56 146.74 63.72L146.39 60.92C145.363 60.6867 144.196 60.57 142.89 60.57L140.37 60.43C139.25 60.29 138.433 60.22 137.92 60.22C137.64 60.22 137.476 60.3367 137.43 60.57C137.43 60.71 137.406 60.78 137.36 60.78L137.22 62.18C137.173 63.02 136.916 64.7 136.45 67.22C136.216 68.48 135.936 69.46 135.61 70.16C135.236 70.9533 134.886 71.35 134.56 71.35C134.28 71.35 133.976 71.2333 133.65 71C133.323 70.72 133.16 70.44 133.16 70.16L133.23 69.95L133.3 69.74C134.14 66.4267 134.84 63.1367 135.4 59.87L136.24 55.53L137.08 50.21C137.08 50.21 137.336 48.67 137.85 45.59C138.083 44.33 138.503 42.3 139.11 39.5C139.763 36.3267 140.16 34.1567 140.3 32.99C140.346 32.85 140.44 31.9867 140.58 30.4C140.766 28.6267 140.93 27.32 141.07 26.48C141.21 25.2667 141.35 24.5667 141.49 24.38H141.98C142.12 24.4267 142.283 24.45 142.47 24.45C143.03 24.45 143.45 24.31 143.73 24.03C144.056 24.03 144.336 24.1467 144.57 24.38C144.85 24.5667 144.99 24.8 144.99 25.08C144.99 27.32 145.153 29.8867 145.48 32.78C145.666 34.2733 145.806 35.51 145.9 36.49C146.413 42.51 147.72 53.8033 149.82 70.37V70.58C149.82 71.0467 149.633 71.3967 149.26 71.63ZM146.04 59.03C145.573 52.31 144.686 42.3933 143.38 29.28L139.6 47.97C138.526 53.3367 137.99 56.72 137.99 58.12C137.99 58.3533 138.876 58.5633 140.65 58.75C142.423 58.9367 143.986 59.03 145.34 59.03H146.04Z" fill="#1D1D1D"/>
</svg>
