<svg width="175" height="76" viewBox="0 0 175 76" fill="none" xmlns="http://www.w3.org/2000/svg">
<path d="M166.059 57.3225C166.059 59.3553 165.612 60.2779 165.019 60.6765C164.406 61.0892 163.458 61.071 162.112 60.7424C161.311 60.5467 160.446 60.2642 159.508 59.9578C158.88 59.7528 158.22 59.537 157.524 59.3295C155.821 58.8216 153.967 58.3858 152.089 58.3858C150.211 58.3858 148.429 58.8223 146.834 59.3319C146.136 59.5549 145.467 59.7939 144.842 60.0173C144.753 60.0491 144.665 60.0805 144.578 60.1116C143.874 60.3626 143.233 60.5861 142.653 60.7455C141.453 61.0748 140.682 61.0783 140.194 60.695C139.696 60.3045 139.316 59.376 139.316 57.3225C139.316 53.2882 140.791 48.1383 143.168 44C144.354 41.9335 145.755 40.1394 147.288 38.8666C148.821 37.594 150.463 36.8602 152.148 36.8602C153.836 36.8602 155.549 37.5965 157.187 38.8747C158.823 40.1517 160.358 41.9498 161.678 44.0172C164.324 48.1601 166.059 53.3037 166.059 57.3225Z" stroke="white" stroke-width="0.857843"/>
<path d="M143.554 33.5191C144.013 35.4624 144.032 37.2923 143.545 38.7404C143.067 40.1638 142.095 41.24 140.489 41.7285C138.883 42.2171 137.568 41.8367 136.526 40.8757C135.467 39.898 134.678 38.3025 134.219 36.3591C133.76 34.4158 133.741 32.5859 134.228 31.1378C134.707 29.7143 135.678 28.6382 137.284 28.1496C138.89 27.661 140.206 28.0415 141.247 29.0025C142.306 29.9802 143.096 31.5757 143.554 33.5191Z" stroke="white" stroke-width="0.857843"/>
<path d="M172.223 39.2852C170.689 43.0198 167.97 45.2661 164.681 43.5247C161.391 41.7832 161.159 37.9746 162.693 34.24C164.227 30.5054 166.946 28.259 170.235 30.0005C173.525 31.742 173.757 35.5505 172.223 39.2852Z" fill="white"/>
<path d="M152.916 24.4935C152.916 26.5578 152.835 28.7352 152.324 30.3889C152.07 31.2119 151.72 31.8692 151.252 32.3177C150.795 32.7557 150.203 33.0179 149.402 33.0179C147.744 33.0179 146.561 32.2665 145.774 31.031C144.972 29.774 144.573 27.9991 144.573 25.9857C144.573 23.9723 144.972 22.1974 145.774 20.9404C146.561 19.7048 147.744 18.9535 149.402 18.9535C150.278 18.9535 150.912 19.0659 151.376 19.2703C151.828 19.4691 152.136 19.7623 152.357 20.1689C152.586 20.5879 152.729 21.1429 152.813 21.8711C152.896 22.5977 152.916 23.4647 152.916 24.4935Z" fill="white" stroke="white" stroke-width="0.857843"/>
<path d="M155.088 27.4779C155.088 25.4135 155.168 23.2361 155.679 21.5825C155.933 20.7595 156.283 20.1022 156.751 19.6537C157.208 19.2157 157.801 18.9535 158.602 18.9535C160.26 18.9535 161.442 19.7048 162.23 20.9404C163.031 22.1974 163.43 23.9723 163.43 25.9857C163.43 27.9991 163.031 29.774 162.23 31.031C161.442 32.2665 160.26 33.0179 158.602 33.0179C157.725 33.0179 157.091 32.9055 156.627 32.7011C156.176 32.5023 155.867 32.2091 155.646 31.8025C155.418 31.3834 155.274 30.8285 155.191 30.1002C155.107 29.3737 155.088 28.5066 155.088 27.4779Z" stroke="white" stroke-width="0.857843"/>
<path d="M5.28431 61.8701C4.80392 61.8701 4.56373 61.1695 4.56373 59.7684C4.56373 57.7668 4.54371 55.9853 4.50368 54.424L4.38358 49.0196V44.1557C4.34355 42.7145 4.32353 41.0932 4.32353 39.2917C4.32353 33.9273 4.22345 28.9633 4.02328 24.3995L3.96324 22.2378C3.84314 19.8758 3.78309 17.9543 3.78309 16.4731L3.96324 16.2329C4.00327 16.1528 4.08333 16.0527 4.20343 15.9326C4.24346 15.8125 4.34355 15.7325 4.50368 15.6924C4.58374 15.6524 4.72386 15.6324 4.92402 15.6324C6.32516 15.6324 7.58619 15.9526 8.70711 16.5932C9.86806 17.2337 10.8088 18.1144 11.5294 19.2353C12.9306 21.4371 13.6311 23.9392 13.6311 26.7414C13.6311 28.5429 13.3309 30.3844 12.7304 32.266C12.1699 34.1475 11.3092 35.8489 10.1483 37.3701C8.94731 39.0115 7.60621 39.9722 6.125 40.2525L6.2451 46.9179L6.3652 50.1606C6.52533 54.0037 6.60539 57.2864 6.60539 60.0086C6.60539 60.6491 6.50531 61.1295 6.30515 61.4498C6.14502 61.73 5.80474 61.8701 5.28431 61.8701ZM6.125 38.0307C6.48529 37.9906 6.84559 37.8305 7.20588 37.5503C7.28595 37.5102 7.42606 37.3501 7.62623 37.0699C7.62623 37.0699 7.76634 36.9298 8.04657 36.6495C10.6487 34.0474 11.9498 30.7847 11.9498 26.8615C11.9498 24.6197 11.5094 22.538 10.6287 20.6164C10.1483 19.6156 9.44771 18.835 8.52696 18.2745C7.60621 17.674 6.52533 17.3738 5.28431 17.3738C5.28431 19.6557 5.40441 23.0785 5.64461 27.6422C5.8848 32.2059 6.0049 35.6287 6.0049 37.9106L6.125 38.0307ZM22.06 62.2905C21.3395 62.2905 20.9391 61.8701 20.8591 61.0294V60.2488C20.8991 60.0486 20.9191 59.8084 20.9191 59.5282L20.6789 59.288C20.9992 58.4473 21.1593 57.6267 21.1593 56.826C21.1593 55.9053 21.0993 54.5842 20.9792 52.8628L20.8591 48.8995C20.8591 46.8979 20.9191 43.8954 21.0392 39.8922C21.1993 36.3293 21.2794 33.3068 21.2794 30.8248L21.1593 27.2218C21.0792 26.1409 21.0392 24.94 21.0392 23.6189C21.0392 23.0184 21.1793 22.5981 21.4595 22.3579C21.7398 22.0776 22.1801 21.9375 22.7806 21.9375C23.181 21.9375 23.5012 22.0576 23.7414 22.2978C23.8215 22.3378 24.402 22.4179 25.4828 22.538C26.4837 22.6581 27.3444 22.8383 28.0649 23.0784C28.8256 23.3186 29.2059 23.6189 29.2059 23.9792C29.2059 24.3795 28.8256 24.7798 28.0649 25.1802C25.7831 24.4195 24.1618 24.0392 23.201 24.0392L22.9007 24.3995C22.9408 24.7598 22.9608 25.6205 22.9608 26.9816C22.9608 28.703 22.9207 30.2443 22.8407 31.6054C22.8006 33.0066 22.7806 34.5678 22.7806 36.2892C22.7806 37.4102 23.0609 37.9706 23.6213 37.9706L24.5821 37.9106C24.9024 37.8705 25.2426 37.8505 25.6029 37.8505C27.1642 37.8505 27.9448 38.2108 27.9448 38.9314C27.9448 39.3718 27.8448 39.7521 27.6446 40.0723C27.4444 40.3526 27.1442 40.4927 26.7439 40.4927C26.1434 40.4927 25.683 40.3325 25.3627 40.0123L23.4412 39.712H23.1409L22.8407 40.0123V40.1924C22.9207 40.873 22.9608 42.4543 22.9608 44.9363C22.9608 46.4976 22.9408 47.9187 22.9007 49.1998L22.8407 53.4633C22.8407 55.0245 22.9007 56.6258 23.0208 58.2672C23.0609 59.1879 23.261 59.8084 23.6213 60.1287C23.9816 60.4089 24.6421 60.549 25.6029 60.549L26.6838 60.489C27.0441 60.449 27.4444 60.4289 27.8848 60.4289C29.0457 60.4289 29.6262 60.6892 29.6262 61.2096C29.6262 61.9302 28.7455 62.2905 26.9841 62.2905H22.06ZM40.2465 60.6691L40.1864 58.4473C40.1464 57.8068 40.1264 57.0862 40.1264 56.2856C40.1264 55.8852 40.1464 55.545 40.1864 55.2647L40.2465 54.1838C40.2465 53.7835 40.1664 53.3031 40.0063 52.7427C40.0063 50.0605 39.8061 45.0764 39.4058 37.7905C39.0054 30.7447 38.7853 25.9608 38.7452 23.4387C36.2632 23.4387 34.6018 23.3787 33.7612 23.2586C32.9605 23.0584 32.5602 22.7382 32.5602 22.2978C32.7603 21.8575 33.1406 21.6373 33.7011 21.6373C34.9021 21.6373 36.6435 21.7173 38.9254 21.8775C41.0071 22.0776 42.7485 22.1777 44.1496 22.1777H45.4107L46.6717 22.1177C47.3923 22.1177 47.7526 22.3779 47.7526 22.8983C47.7526 23.1385 47.6125 23.3387 47.3322 23.4988C47.092 23.6189 46.7918 23.6789 46.4315 23.6789C45.6308 23.6789 44.7902 23.6389 43.9094 23.5588L41.3273 23.4387C41.1672 23.4387 41.0871 23.4988 41.0871 23.6189C41.0471 23.739 41.0271 24.1193 41.0271 24.7598C41.0271 28.643 41.2673 34.5278 41.7477 42.4142C42.188 50.5809 42.4082 56.4457 42.4082 60.0086C42.4082 60.2888 42.2281 60.549 41.8678 60.7892C41.5475 61.0294 41.2273 61.1495 40.907 61.1495L40.2465 60.6691ZM72.0049 62.891C71.4845 62.891 71.1242 62.7508 70.924 62.4706C70.7639 62.2304 70.6838 61.8101 70.6838 61.2096V55.7451C70.6838 53.0229 70.6037 49.7202 70.4436 45.837C70.4036 45.1164 70.3836 44.0756 70.3836 42.7145C70.2635 39.8722 70.2034 37.6303 70.2034 35.989L70.2635 32.6262C70.3035 31.6254 70.3235 30.5045 70.3235 29.2635C70.3235 28.1826 70.3035 27.2218 70.2635 26.3811C70.2234 25.7807 70.1834 25.2802 70.1434 24.8799C70.1434 24.4796 70.1233 24.1593 70.0833 23.9191L69.9632 24.3395C69.5228 27.2619 68.8623 31.105 67.9816 35.8689C67.1009 40.6328 66.3803 44.4559 65.8198 47.3383C65.2594 49.9003 64.8991 51.7218 64.7389 52.8027C64.6589 53.3231 64.4787 53.7435 64.1985 54.0637C63.9583 54.384 63.6781 54.5441 63.3578 54.5441C63.0376 54.5441 62.7573 54.384 62.5171 54.0637C62.2769 53.7435 62.1368 53.2831 62.0968 52.6826C61.8166 50.7611 60.7957 45.3967 59.0343 36.5895C57.2728 27.7823 56.292 23.2186 56.0919 22.8983C55.9718 26.5012 55.9117 30.5445 55.9117 35.0282C55.9117 38.5511 55.9318 41.7337 55.9718 44.576C56.0118 47.4183 56.0318 50.6009 56.0318 54.1238C56.0318 54.7243 56.0919 55.6651 56.212 56.9461L56.3321 59.8285C56.3321 60.5891 56.192 61.1095 55.9117 61.3897C54.7508 61.3897 54.1703 60.3489 54.1703 58.2672V48.239L54.2304 42.174C54.2704 40.3726 54.2904 38.3309 54.2904 36.049C54.2904 33.4069 54.3104 31.045 54.3505 28.9633L54.4706 21.8174V16.5331C54.4706 16.3329 54.5506 16.1528 54.7108 15.9927C54.9109 15.8325 55.1111 15.7525 55.3112 15.7525C55.6315 15.7525 55.8517 15.9126 55.9718 16.2329C56.3321 17.4338 57.2328 20.9767 58.674 26.8615C60.1152 32.7463 61.1961 37.2901 61.9166 40.4927C62.2769 42.3742 62.8574 45.6969 63.6581 50.4608L64.0784 48.1189C64.1985 47.3983 64.3786 46.3975 64.6188 45.1164C65.0992 41.9939 65.3995 40.2325 65.5196 39.8321L68.2818 25.1201L68.8223 21.9976L69.4828 18.6348L69.7831 16.8334C69.8231 16.433 69.9432 16.1328 70.1434 15.9326C70.3435 15.6924 70.5637 15.5723 70.8039 15.5723C71.0041 15.5723 71.1842 15.6724 71.3443 15.8726C71.5045 16.0727 71.5845 16.353 71.5845 16.7133V22.6581C71.5845 25.6606 71.7647 30.2043 72.125 36.2892C72.4052 41.8938 72.5453 46.3975 72.5453 49.8003C72.5453 50.8811 72.6054 52.5425 72.7255 54.7843C72.8055 57.6667 72.8456 59.6683 72.8456 60.7892C72.8456 61.67 72.7855 62.2504 72.6654 62.5307C72.5053 62.7709 72.2851 62.891 72.0049 62.891ZM93.4428 62.0503C92.8424 62.0503 92.462 61.9702 92.3019 61.8101C92.1418 61.69 92.0217 61.3297 91.9416 60.7292C91.5813 57.8068 91.3611 55.9853 91.2811 55.2647L90.9808 52.8628C90.1001 52.6626 89.0993 52.5625 87.9784 52.5625L85.8166 52.4424C84.8558 52.3223 84.1553 52.2623 83.7149 52.2623C83.4747 52.2623 83.3346 52.3624 83.2946 52.5625C83.2946 52.6826 83.2745 52.7427 83.2345 52.7427L83.1144 53.9436C83.0744 54.6642 82.8542 56.1054 82.4539 58.2672C82.2537 59.3481 82.0135 60.1887 81.7333 60.7892C81.413 61.4698 81.1128 61.8101 80.8326 61.8101C80.5924 61.8101 80.3321 61.71 80.0519 61.5098C79.7717 61.2696 79.6316 61.0294 79.6316 60.7892L79.6916 60.6091L79.7517 60.4289C80.4723 57.5866 81.0727 54.7643 81.5531 51.962L82.2737 48.239L82.9943 43.6753C82.9943 43.6753 83.2145 42.3542 83.6549 39.712C83.855 38.6311 84.2153 36.8897 84.7357 34.4878C85.2962 31.7655 85.6365 29.904 85.7566 28.9032C85.7966 28.7831 85.8767 28.0425 85.9968 26.6814C86.1569 25.1601 86.297 24.0392 86.4171 23.3186C86.5372 22.2778 86.6573 21.6773 86.7774 21.5172H87.1977C87.3178 21.5572 87.458 21.5772 87.6181 21.5772C88.0985 21.5772 88.4588 21.4571 88.699 21.2169C88.9792 21.2169 89.2194 21.317 89.4196 21.5172C89.6598 21.6773 89.7799 21.8775 89.7799 22.1177C89.7799 24.0392 89.92 26.241 90.2002 28.7231C90.3603 30.0041 90.4804 31.065 90.5605 31.9057C91.0009 37.0699 92.1218 46.7578 93.9232 60.9694V61.1495C93.9232 61.5499 93.7631 61.8501 93.4428 62.0503ZM90.6806 51.2414C90.2803 45.4767 89.5196 36.9698 88.3987 25.7206L85.1561 41.7537C84.2353 46.3575 83.775 49.2598 83.775 50.4608C83.775 50.661 84.5356 50.8411 86.0568 51.0012C87.5781 51.1614 88.9192 51.2414 90.0801 51.2414H90.6806ZM101.278 62.2304C100.837 59.7084 100.617 56.826 100.617 53.5834C100.617 52.3023 100.677 50.4408 100.797 47.9988L100.918 42.4142C100.637 41.8538 100.497 41.3934 100.497 41.0331C100.898 40.3926 101.098 38.5511 101.098 35.5086C101.098 28.2227 100.998 24.3395 100.797 23.8591C101.158 22.8583 101.438 22.3579 101.638 22.3579H104.28C104.721 22.3579 105.341 22.578 106.142 23.0184C106.982 23.4187 107.683 23.8591 108.244 24.3395C109.244 25.2602 109.745 27.6222 109.745 31.4253C109.745 33.4669 109.685 35.0282 109.565 36.1091C109.485 36.8697 109.344 37.4702 109.144 37.9106C108.984 38.3509 108.724 38.8513 108.364 39.4118C107.763 40.3325 106.742 41.1332 105.301 41.8137C104.701 42.134 103.86 42.4543 102.779 42.7745V49.9204C102.779 50.9212 102.879 52.8828 103.079 55.8052L103.199 57.7267L103.319 61.6299C103.319 62.3505 102.939 62.7108 102.179 62.7108L101.278 62.2304ZM103.199 40.7329C104.36 40.7329 105.341 40.1924 106.142 39.1115C106.422 38.7112 106.682 38.1708 106.922 37.4902C107.163 36.8097 107.323 36.1491 107.403 35.5086C107.643 34.3477 107.763 33.0066 107.763 31.4853V29.864C107.763 29.3035 107.743 28.7631 107.703 28.2427C107.663 27.7222 107.583 27.2218 107.463 26.7414C107.303 26.221 107.083 25.8007 106.802 25.4804C106.562 25.1201 106.222 24.8199 105.782 24.5797C105.301 24.3395 104.721 24.2194 104.04 24.2194C103.56 24.2194 103.219 24.3395 103.019 24.5797C102.819 24.8199 102.719 25.2402 102.719 25.8407C102.719 26.8015 102.779 28.2427 102.899 30.1642L103.019 34.4878C103.019 35.5286 102.979 36.4694 102.899 37.3101L102.779 40.1324L103.199 40.7329ZM128.041 62.0503C127.441 62.0503 127.061 61.9702 126.9 61.8101C126.74 61.69 126.62 61.3297 126.54 60.7292C126.18 57.8068 125.96 55.9853 125.88 55.2647L125.579 52.8628C124.699 52.6626 123.698 52.5625 122.577 52.5625L120.415 52.4424C119.454 52.3223 118.754 52.2623 118.313 52.2623C118.073 52.2623 117.933 52.3624 117.893 52.5625C117.893 52.6826 117.873 52.7427 117.833 52.7427L117.713 53.9436C117.673 54.6642 117.453 56.1054 117.052 58.2672C116.852 59.3481 116.612 60.1887 116.332 60.7892C116.012 61.4698 115.711 61.8101 115.431 61.8101C115.191 61.8101 114.931 61.71 114.65 61.5098C114.37 61.2696 114.23 61.0294 114.23 60.7892L114.29 60.6091L114.35 60.4289C115.071 57.5866 115.671 54.7643 116.152 51.962L116.872 48.239L117.593 43.6753C117.593 43.6753 117.813 42.3542 118.253 39.712C118.454 38.6311 118.814 36.8897 119.334 34.4878C119.895 31.7655 120.235 29.904 120.355 28.9032C120.395 28.7831 120.475 28.0425 120.595 26.6814C120.755 25.1601 120.896 24.0392 121.016 23.3186C121.136 22.2778 121.256 21.6773 121.376 21.5172H121.796C121.916 21.5572 122.057 21.5772 122.217 21.5772C122.697 21.5772 123.057 21.4571 123.298 21.2169C123.578 21.2169 123.818 21.317 124.018 21.5172C124.258 21.6773 124.378 21.8775 124.378 22.1177C124.378 24.0392 124.519 26.241 124.799 28.7231C124.959 30.0041 125.079 31.065 125.159 31.9057C125.599 37.0699 126.72 46.7578 128.522 60.9694V61.1495C128.522 61.5499 128.362 61.8501 128.041 62.0503ZM125.279 51.2414C124.879 45.4767 124.118 36.9698 122.997 25.7206L119.755 41.7537C118.834 46.3575 118.374 49.2598 118.374 50.4608C118.374 50.661 119.134 50.8411 120.655 51.0012C122.177 51.1614 123.518 51.2414 124.679 51.2414H125.279Z" fill="white"/>
</svg>
